<?xml version="1.0" encoding="us-ascii" standalone="no"?><svg xmlns="http://www.w3.org/2000/svg" xmlns:xlink="http://www.w3.org/1999/xlink" contentStyleType="text/css" height="529px" preserveAspectRatio="none" style="width:529px;height:529px;background:#FFFFFF;" version="1.1" viewBox="0 0 529 529" width="529px" zoomAndPan="magnify"><defs/><g><!--entity Producer--><g id="elem_Producer"><ellipse cx="38" cy="14" fill="#F1F1F1" rx="8" ry="8" style="stroke:#181818;stroke-width:0.5;"/><path d="M38,22 L38,49 M25,30 L51,30 M38,49 L25,64 M38,49 L51,64 " fill="none" style="stroke:#181818;stroke-width:0.5;"/><text fill="#000000" font-family="sans-serif" font-size="14" lengthAdjust="spacing" textLength="64" x="6" y="78.4951">Producer</text></g><!--entity Traffic--><g id="elem_Traffic"><path d="M142.5,30.5 L199.5,30.5 C204.5,30.5 204.5,43.6484 204.5,43.6484 C204.5,43.6484 204.5,56.7969 199.5,56.7969 L142.5,56.7969 C137.5,56.7969 137.5,43.6484 137.5,43.6484 C137.5,43.6484 137.5,30.5 142.5,30.5 " fill="#F1F1F1" style="stroke:#181818;stroke-width:0.5;"/><path d="M199.5,30.5 C194.5,30.5 194.5,43.6484 194.5,43.6484 C194.5,56.7969 199.5,56.7969 199.5,56.7969 " fill="none" style="stroke:#181818;stroke-width:0.5;"/><text fill="#000000" font-family="sans-serif" font-size="14" lengthAdjust="spacing" textLength="47" x="142.5" y="48.4951">Traffic</text></g><!--entity Station1--><g id="elem_Station1"><polygon fill="#F1F1F1" points="272,30.5,282,20.5,374,20.5,374,56.7969,364,66.7969,272,66.7969,272,30.5" style="stroke:#181818;stroke-width:0.5;"/><line style="stroke:#181818;stroke-width:0.5;" x1="364" x2="374" y1="30.5" y2="20.5"/><line style="stroke:#181818;stroke-width:0.5;" x1="272" x2="364" y1="30.5" y2="30.5"/><line style="stroke:#181818;stroke-width:0.5;" x1="364" x2="364" y1="30.5" y2="66.7969"/><text fill="#000000" font-family="sans-serif" font-size="14" lengthAdjust="spacing" textLength="62" x="287" y="53.4951">Station1</text></g><!--entity Station2--><g id="elem_Station2"><polygon fill="#F1F1F1" points="120.5,320.5,130.5,310.5,221.5,310.5,221.5,346.7969,211.5,356.7969,120.5,356.7969,120.5,320.5" style="stroke:#181818;stroke-width:0.5;"/><line style="stroke:#181818;stroke-width:0.5;" x1="211.5" x2="221.5" y1="320.5" y2="310.5"/><line style="stroke:#181818;stroke-width:0.5;" x1="120.5" x2="211.5" y1="320.5" y2="320.5"/><line style="stroke:#181818;stroke-width:0.5;" x1="211.5" x2="211.5" y1="320.5" y2="356.7969"/><text fill="#000000" font-family="sans-serif" font-size="14" lengthAdjust="spacing" textLength="61" x="135.5" y="343.4951">Station2</text></g><!--entity Consumer1--><g id="elem_Consumer1"><ellipse cx="482" cy="14" fill="#F1F1F1" rx="8" ry="8" style="stroke:#181818;stroke-width:0.5;"/><path d="M482,22 L482,49 M469,30 L495,30 M482,49 L469,64 M482,49 L495,64 " fill="none" style="stroke:#181818;stroke-width:0.5;"/><text fill="#000000" font-family="sans-serif" font-size="14" lengthAdjust="spacing" textLength="81" x="441.5" y="78.4951">Consumer1</text></g><!--entity Consumer2--><g id="elem_Consumer2"><ellipse cx="431" cy="167" fill="#F1F1F1" rx="8" ry="8" style="stroke:#181818;stroke-width:0.5;"/><path d="M431,175 L431,202 M418,183 L444,183 M431,202 L418,217 M431,202 L444,217 " fill="none" style="stroke:#181818;stroke-width:0.5;"/><text fill="#000000" font-family="sans-serif" font-size="14" lengthAdjust="spacing" textLength="80" x="391" y="231.4951">Consumer2</text></g><!--entity Consumer3--><g id="elem_Consumer3"><ellipse cx="330" cy="304" fill="#F1F1F1" rx="8" ry="8" style="stroke:#181818;stroke-width:0.5;"/><path d="M330,312 L330,339 M317,320 L343,320 M330,339 L317,354 M330,339 L343,354 " fill="none" style="stroke:#181818;stroke-width:0.5;"/><text fill="#000000" font-family="sans-serif" font-size="14" lengthAdjust="spacing" textLength="81" x="289.5" y="368.4951">Consumer3</text></g><!--entity Consumer4--><g id="elem_Consumer4"><ellipse cx="263" cy="457" fill="#F1F1F1" rx="8" ry="8" style="stroke:#181818;stroke-width:0.5;"/><path d="M263,465 L263,492 M250,473 L276,473 M263,492 L250,507 M263,492 L276,507 " fill="none" style="stroke:#181818;stroke-width:0.5;"/><text fill="#000000" font-family="sans-serif" font-size="14" lengthAdjust="spacing" textLength="80" x="223" y="521.4951">Consumer4</text></g><!--link Consumer1 to Consumer2--><!--link Consumer2 to Consumer3--><!--link Consumer3 to Consumer4--><!--link Producer to Traffic--><g id="link_Producer_Traffic"><path d="M70.1956,43.5 C88.8266,43.5 112.405,43.5 132.072,43.5 " fill="none" id="Producer-to-Traffic" style="stroke:#181818;stroke-width:1.0;"/><polygon fill="#181818" points="137.245,43.5,128.245,39.5,132.245,43.5,128.245,47.5,137.245,43.5" style="stroke:#181818;stroke-width:1.0;"/><text fill="#000000" font-family="sans-serif" font-size="13" lengthAdjust="spacing" textLength="31" x="88.25" y="36.5669">send</text></g><!--link Traffic to Station1--><g id="link_Traffic_Station1"><path d="M204.734,43.5 C222.875,43.5 245.728,43.5 266.497,43.5 " fill="none" id="Traffic-to-Station1" style="stroke:#181818;stroke-width:1.0;"/><polygon fill="#181818" points="271.728,43.5,262.728,39.5,266.728,43.5,262.728,47.5,271.728,43.5" style="stroke:#181818;stroke-width:1.0;"/><text fill="#000000" font-family="sans-serif" font-size="13" lengthAdjust="spacing" textLength="31" x="222.75" y="36.5669">send</text></g><!--link Station1 to Consumer1--><g id="link_Station1_Consumer1"><path d="M374.184,43.5 C394.099,43.5 416.742,43.5 436.118,43.5 " fill="none" id="Station1-to-Consumer1" style="stroke:#181818;stroke-width:1.0;"/><polygon fill="#181818" points="441.492,43.5,432.492,39.5,436.492,43.5,432.492,47.5,441.492,43.5" style="stroke:#181818;stroke-width:1.0;"/><text fill="#000000" font-family="sans-serif" font-size="13" lengthAdjust="spacing" textLength="31" x="392.25" y="36.5669">send</text></g><!--link Station1 to Consumer2--><g id="link_Station1_Consumer2"><path d="M338.936,66.781 C355.378,89.769 381.399,126.151 401.589,154.38 " fill="none" id="Station1-to-Consumer2" style="stroke:#181818;stroke-width:1.0;"/><polygon fill="#181818" points="404.524,158.483,402.5423,148.8356,401.6155,154.416,396.0351,153.4891,404.524,158.483" style="stroke:#181818;stroke-width:1.0;"/><text fill="#000000" font-family="sans-serif" font-size="13" lengthAdjust="spacing" textLength="31" x="381" y="124.5669">send</text></g><!--link Station1 to Consumer3--><g id="link_Station1_Consumer3"><path d="M323.538,66.621 C324.699,114.407 327.459,227.971 328.969,290.099 " fill="none" id="Station1-to-Consumer3" style="stroke:#181818;stroke-width:1.0;"/><polygon fill="#181818" points="329.094,295.215,332.8717,286.1194,328.9711,290.2165,324.8741,286.316,329.094,295.215" style="stroke:#181818;stroke-width:1.0;"/><text fill="#000000" font-family="sans-serif" font-size="13" lengthAdjust="spacing" textLength="31" x="328" y="201.0669">send</text></g><!--link Traffic to Station2--><g id="link_Traffic_Station2"><path d="M171,56.508 C171,99.187 171,244.241 171,305.183 " fill="none" id="Traffic-to-Station2" style="stroke:#181818;stroke-width:1.0;"/><polygon fill="#181818" points="171,310.466,175,301.466,171,305.466,167,301.466,171,310.466" style="stroke:#181818;stroke-width:1.0;"/><text fill="#000000" font-family="sans-serif" font-size="13" lengthAdjust="spacing" textLength="31" x="172" y="201.0669">send</text></g><!--link Station2 to Consumer3--><g id="link_Station2_Consumer3"><path d="M221.746,333.5 C241.683,333.5 264.409,333.5 283.874,333.5 " fill="none" id="Station2-to-Consumer3" style="stroke:#181818;stroke-width:1.0;"/><polygon fill="#181818" points="289.273,333.5,280.273,329.5,284.273,333.5,280.273,337.5,289.273,333.5" style="stroke:#181818;stroke-width:1.0;"/><text fill="#000000" font-family="sans-serif" font-size="13" lengthAdjust="spacing" textLength="31" x="240" y="326.5669">send</text></g><!--link Station2 to Consumer4--><g id="link_Station2_Consumer4"><path d="M184.575,356.781 C198.524,379.675 220.566,415.853 237.735,444.0321 " fill="none" id="Station2-to-Consumer4" style="stroke:#181818;stroke-width:1.0;"/><polygon fill="#181818" points="240.446,448.4827,239.179,438.7157,237.8444,444.2129,232.3472,442.8783,240.446,448.4827" style="stroke:#181818;stroke-width:1.0;"/><text fill="#000000" font-family="sans-serif" font-size="13" lengthAdjust="spacing" textLength="31" x="220" y="414.5669">send</text></g><!--SRC=[VOyn3iCW34Ltdy8No138rA5BBr2ftQeEA7PKXXgLW7hze2gW595iF9w_hM_6u3nUlQCuiWVuH8wCTs-coOuWZXXlmGJhfFyZ1M1-qOkJERxPznMhYdN50q29OlTuMIAM9xclTEVDalBQdT5bHk_Ef6Ev8gRljHwUS6OXo9XCxffLuSsoGwcEfCwoSR8EgcQm9OTLBW00]--></g></svg>